<svg id="Capa_1" enable-background="new 0 0 491.798 491.798" height="512" viewBox="0 0 491.798 491.798" width="512" xmlns="http://www.w3.org/2000/svg"><g><g><path d="m48.441 125.785h32.449v199.606h-32.449z" fill="#d4cdcb"/></g><g><path d="m60.146 165.087c-17.098 0-30.959-13.861-30.959-30.959v-102.805c.001-17.299 14.024-31.323 31.324-31.323h30.595l10 65.117-10 69.011c-.001 17.098-13.862 30.959-30.96 30.959z" fill="#df6937"/></g><g><path d="m122.064 165.087c-17.098 0-30.959-13.861-30.959-30.959v-134.128h61.918l10 66.27-10 67.858c0 17.098-13.861 30.959-30.959 30.959z" fill="#f0e9e6"/></g><g><path d="m183.982 165.087c-17.098 0-30.959-13.861-30.959-30.959v-134.128h61.918v134.128c-.001 17.098-13.861 30.959-30.959 30.959z" fill="#df6937"/></g><g><path d="m183.982 165.087c-17.098 0-30.959-13.861-30.959-30.959v-134.128h61.918l10 61.083-10 73.045c-.001 17.098-13.861 30.959-30.959 30.959z" fill="#dd552d"/></g><g><path d="m410.909 125.785h32.449v199.606h-32.449z" fill="#d4cdcb"/></g><g><path d="m431.424 491.798h-371.05c-11.019 0-19.951-8.932-19.951-19.951v-126.889l205.476-20 205.476 20v126.889c0 11.019-8.932 19.951-19.951 19.951z" fill="#d4cdcb"/></g><g><path d="m421.375 344.958v126.889c0 11.019-8.932 19.951-19.951 19.951h30c11.019 0 19.951-8.932 19.951-19.951v-126.889z" fill="#c4bebc"/></g><g><path d="m459.357 308.391h-426.915c-6.657 0-12.054 5.397-12.054 12.054v12.46c0 6.657 5.397 12.054 12.054 12.054h426.915c6.657 0 12.054-5.397 12.054-12.054v-12.46c-.001-6.657-5.397-12.054-12.054-12.054z" fill="#f0e9e6"/></g><g><path d="m245.899 165.087c-17.098 0-30.959-13.861-30.959-30.959v-134.128h61.917l10 61.083-10 73.045c.001 17.098-13.86 30.959-30.958 30.959z" fill="#f0e9e6"/></g><g><path d="m307.817 165.087c-17.098 0-30.959-13.861-30.959-30.959v-134.128h61.918l10 63.388-10 70.74c-.001 17.098-13.861 30.959-30.959 30.959z" fill="#df6937"/></g><g><path d="m369.734 165.087c-17.098 0-30.959-13.861-30.959-30.959v-134.128h61.918l10 65.693-10 68.435c0 17.098-13.861 30.959-30.959 30.959z" fill="#f0e9e6"/></g><g><path d="m431.652 165.087c-17.098 0-30.959-13.861-30.959-30.959v-134.128h30.595c17.299 0 31.323 14.024 31.323 31.323v102.805c0 17.098-13.861 30.959-30.959 30.959z" fill="#dd552d"/></g><g><path d="m358.17 445.13h-217.909c-4.56 0-8.257-3.697-8.257-8.257v-39.24c0-4.56 3.697-8.257 8.257-8.257h217.909c4.56 0 8.257 3.697 8.257 8.257v39.24c0 4.56-3.696 8.257-8.257 8.257z" fill="#f0e9e6"/></g><g><path d="m460.282 128.87h-428.766c-4.142 0-7.5-3.358-7.5-7.5s3.358-7.5 7.5-7.5h428.766c4.143 0 7.5 3.358 7.5 7.5s-3.357 7.5-7.5 7.5z" fill="#d4cdcb"/></g></g></svg>