<?xml version="1.0"?>
<svg xmlns="http://www.w3.org/2000/svg" xmlns:xlink="http://www.w3.org/1999/xlink" version="1.1" id="Layer_1" x="0px" y="0px" viewBox="0 0 511.998 511.998" style="enable-background:new 0 0 511.998 511.998;" xml:space="preserve" width="512px" height="512px" class=""><g transform="matrix(0.913517 0 0 0.913517 22.1395 22.1395)"><g>
	<path style="fill:#CFCFCF" d="M459.901,26.374h-59.404h-96.332h-96.331h-96.332H52.099c-20.394,0-36.927,16.533-36.927,36.925   v101.28c0,26.601,21.564,48.166,48.166,48.166l0,0c26.601,0,48.166-21.564,48.166-48.166c0,26.601,21.564,48.166,48.166,48.166l0,0   c26.601,0,48.166-21.564,48.166-48.166c0,26.601,21.565,48.166,48.166,48.166l0,0c26.601,0,48.166-21.564,48.166-48.166   c0,26.601,21.565,48.166,48.166,48.166l0,0c26.601,0,48.166-21.564,48.166-48.166c0,26.601,21.565,48.166,48.166,48.166l0,0   c26.601,0,48.166-21.564,48.166-48.166v-26.232V94.576V63.299C496.828,42.907,480.295,26.374,459.901,26.374z" data-original="#CEE8FA" class="active-path" data-old_color="#CEE8FA"/>
	<circle style="fill:#CFCFCF" cx="379.782" cy="368.918" r="92.117" data-original="#CEE8FA" class="active-path" data-old_color="#CEE8FA"/>
</g><path style="fill:#666666" d="M63.338,227.918c19.258,0,36.538-8.642,48.165-22.25c11.626,13.608,28.907,22.25,48.166,22.25  c19.258,0,36.538-8.642,48.165-22.25c11.626,13.608,28.907,22.25,48.166,22.25s36.54-8.642,48.166-22.25  c11.626,13.608,28.907,22.25,48.165,22.25c19.259,0,36.54-8.642,48.166-22.25c11.626,13.608,28.907,22.25,48.165,22.25  c34.926,0,63.338-28.414,63.338-63.338V63.301c0-28.728-23.371-52.099-52.099-52.099H52.099C23.371,11.202,0,34.573,0,63.301v101.28  c0,23.049,12.38,43.256,30.835,54.336v219.206c0,8.378,6.794,15.172,15.172,15.172h267.542  c18.822,14.832,41.902,22.905,66.234,22.905c23.535,0,45.905-7.54,64.377-21.455l41.609,41.607  c2.963,2.962,6.846,4.444,10.728,4.444s7.765-1.482,10.728-4.444c5.925-5.925,5.925-15.531,0-21.458l-41.609-41.607  c13.914-18.472,21.456-40.843,21.456-64.377c0-28.658-11.16-55.6-31.425-75.865c-20.265-20.265-47.207-31.424-75.865-31.424  c-20.33,0-39.785,5.642-56.618,16.143H191.712c-8.378,0-15.172,6.794-15.172,15.172v56.136c0,8.378,6.794,15.172,15.172,15.172  c8.378,0,15.172-6.794,15.172-15.172v-40.964h84.527c-23.594,34.263-25.043,79.274-4.313,114.843H61.179V227.862  C61.898,227.888,62.614,227.918,63.338,227.918z M434.191,314.503c14.535,14.533,22.538,33.854,22.538,54.408  s-8.003,39.875-22.538,54.408c-14.533,14.533-33.854,22.536-54.408,22.536c-20.553,0-39.875-8.003-54.408-22.536  c-30.001-29.999-30.001-78.816,0-108.817c14.533-14.533,33.854-22.536,54.408-22.536  C400.337,291.965,419.658,299.97,434.191,314.503z M30.344,63.301c0-11.995,9.76-21.755,21.755-21.755h407.803  c11.995,0,21.755,9.76,21.755,21.755v101.28c0,18.193-14.802,32.994-32.994,32.994s-32.993-14.802-32.993-32.994v-44.086  c0-8.378-6.794-15.172-15.172-15.172s-15.172,6.794-15.172,15.172v44.086c0,18.193-14.802,32.994-32.994,32.994  s-32.993-14.802-32.993-32.994V91.589c0-8.378-6.794-15.172-15.172-15.172s-15.172,6.794-15.172,15.172v72.99  c0,18.193-14.802,32.994-32.994,32.994s-32.994-14.802-32.994-32.994v-44.085c0-8.378-6.794-15.172-15.172-15.172  s-15.172,6.794-15.172,15.172v44.086c0,18.193-14.8,32.994-32.993,32.994s-32.994-14.802-32.994-32.994V91.589  c0-8.378-6.794-15.172-15.172-15.172s-15.172,6.794-15.172,15.172v72.99c0,18.193-14.8,32.994-32.993,32.994  s-32.996-14.8-32.996-32.993V63.301z" data-original="#2D527C" class="" data-old_color="#2D527C"/></g> </svg>
