<?xml version="1.0" encoding="iso-8859-1"?>
<!-- Generator: Adobe Illustrator 19.0.0, SVG Export Plug-In . SVG Version: 6.00 Build 0)  -->
<svg xmlns="http://www.w3.org/2000/svg" xmlns:xlink="http://www.w3.org/1999/xlink" version="1.1" id="Layer_1" x="0px" y="0px" viewBox="0 0 512 512" style="enable-background:new 0 0 512 512;" xml:space="preserve" width="512" height="512">
<g id="XMLID_1483_">
	<g id="XMLID_470_">
		<path id="XMLID_505_" d="M470,148h-4V90c0-5.523-4.477-10-10-10h-30V30c0-16.542-13.458-30-30-30H220.348c-5.523,0-10,4.477-10,10    s4.477,10,10,10H396c5.514,0,10,4.486,10,10v118H106V30c0-5.514,4.486-10,10-10h24.348c5.523,0,10-4.477,10-10s-4.477-10-10-10    H116C99.458,0,86,13.458,86,30v50H56c-5.523,0-10,4.477-10,10v58h-4c-23.159,0-42,18.841-42,42v226c0,23.159,18.841,42,42,42    h33.979l-8.383,15.835c-4.305,8.132-4.042,17.693,0.704,25.576S81.373,512,90.575,512h330.851c9.202,0,17.528-4.706,22.274-12.589    s5.009-17.444,0.704-25.576L436.021,458H470c23.159,0,42-18.841,42-42V190C512,166.841,493.159,148,470,148z M426,100h20v48h-20    V100z M66,100h20v48H66V100z M426.566,489.095c-0.526,0.874-2.08,2.905-5.141,2.905H90.575c-3.061,0-4.615-2.031-5.141-2.905    c-0.526-0.873-1.594-3.197-0.162-5.902L124.021,410h263.958l38.749,73.192C428.16,485.897,427.092,488.222,426.566,489.095z     M402.838,395.321C401.105,392.048,397.704,390,394,390H118c-3.704,0-7.105,2.048-8.838,5.321L86.568,438H74v-76h364v76h-12.568    L402.838,395.321z M492,416c0,12.131-9.869,22-22,22h-12v-86c0-5.522-4.477-10-10-10H64c-5.523,0-10,4.478-10,10v86H42    c-12.131,0-22-9.869-22-22V296.063h402c5.523,0,10-4.478,10-10s-4.477-10-10-10H20V190c0-12.131,9.869-22,22-22h428    c12.131,0,22,9.869,22,22V416z"/>
		<path id="XMLID_973_" d="M88,188.063c-18.748,0-34,15.252-34,34s15.252,34,34,34s34-15.252,34-34S106.748,188.063,88,188.063z     M88,236.063c-7.72,0-14-6.28-14-14s6.28-14,14-14s14,6.28,14,14S95.72,236.063,88,236.063z"/>
		<path id="XMLID_981_" d="M180.348,188.063c-18.748,0-34,15.252-34,34s15.252,34,34,34s34-15.252,34-34    S199.096,188.063,180.348,188.063z M180.348,236.063c-7.72,0-14-6.28-14-14s6.28-14,14-14s14,6.28,14,14    S188.068,236.063,180.348,236.063z"/>
		<path id="XMLID_1542_" d="M271.572,188.063c-18.748,0-34,15.252-34,34s15.252,34,34,34s34-15.252,34-34    S290.32,188.063,271.572,188.063z M271.572,236.063c-7.72,0-14-6.28-14-14s6.28-14,14-14s14,6.28,14,14    S279.292,236.063,271.572,236.063z"/>
		<path id="XMLID_1543_" d="M437.086,212.063H351c-5.523,0-10,4.477-10,10s4.477,10,10,10h86.086c5.523,0,10-4.477,10-10    S442.609,212.063,437.086,212.063z"/>
		<path id="XMLID_1544_" d="M462,276.06c-2.64,0-5.21,1.07-7.07,2.931c-1.86,1.859-2.93,4.439-2.93,7.069s1.07,5.21,2.93,7.07    c1.86,1.87,4.44,2.93,7.07,2.93c2.63,0,5.21-1.06,7.07-2.93c1.86-1.86,2.93-4.43,2.93-7.07c0-2.63-1.07-5.21-2.93-7.069    C467.21,277.13,464.63,276.06,462,276.06z"/>
		<path id="XMLID_1546_" d="M180.35,20c2.63,0,5.21-1.07,7.07-2.93s2.93-4.44,2.93-7.07c0-2.63-1.07-5.21-2.93-7.07    C185.56,1.07,182.98,0,180.35,0c-2.63,0-5.21,1.07-7.07,2.93c-1.86,1.86-2.93,4.44-2.93,7.07c0,2.63,1.07,5.21,2.93,7.07    S177.72,20,180.35,20z"/>
	</g>
</g>















</svg>
