<?xml version="1.0" encoding="iso-8859-1"?>
<!-- Generator: Adobe Illustrator 19.0.0, SVG Export Plug-In . SVG Version: 6.00 Build 0)  -->
<svg version="1.1" id="Layer_1" xmlns="http://www.w3.org/2000/svg" xmlns:xlink="http://www.w3.org/1999/xlink" x="0px" y="0px"
	 viewBox="0 0 511.999 511.999" style="enable-background:new 0 0 511.999 511.999;" xml:space="preserve">
<path style="fill:#D6E5F6;" d="M441.838,150.941L401.594,16.794c-2.553-8.512-10.387-14.339-19.273-14.339H221.344H60.366
	c-8.886,0-16.72,5.829-19.273,14.339L0.849,150.941C0.286,152.818,0,154.766,0,156.724c0,30.799,16.067,57.901,40.244,73.418
	v196.183c0,11.113,9.009,20.122,20.122,20.122h160.977h88.631c-5.579-6.058-10.411-12.812-14.344-20.122
	c-3.402-6.325-6.116-13.067-8.077-20.122c-2.334-8.388-3.609-17.212-3.609-26.335c0-47.35,33.627-86.987,78.255-96.299
	c6.498-1.356,13.227-2.077,20.122-2.077s13.624,0.72,20.122,2.077v-53.427c24.179-15.516,40.244-42.619,40.244-73.418
	C442.687,154.766,442.401,152.818,441.838,150.941z"/>
<path style="fill:#FF6243;" d="M441.838,150.941L401.594,16.794c-2.553-8.512-10.387-14.339-19.273-14.339H221.344H60.366
	c-8.886,0-16.72,5.829-19.273,14.339L0.849,150.941C0.286,152.818,0,154.766,0,156.724c0,30.799,16.067,57.901,40.244,73.418
	c6.218,3.991,12.965,7.217,20.122,9.537c6.416,2.081,13.156,3.425,20.122,3.957c2.216,0.17,4.448,0.284,6.707,0.284
	c20.492,0,39.346-7.122,54.248-18.998c4.688-3.737,8.996-7.932,12.826-12.541c3.831,4.609,8.137,8.804,12.827,12.541
	c14.901,11.877,33.754,18.998,54.247,18.998s39.346-7.122,54.248-18.998c4.688-3.737,8.996-7.932,12.826-12.541
	c3.831,4.609,8.137,8.804,12.827,12.541c14.901,11.877,33.754,18.998,54.247,18.998c2.259,0,4.491-0.114,6.707-0.284
	c6.966-0.533,13.706-1.877,20.122-3.957c7.157-2.319,13.904-5.547,20.122-9.537c24.179-15.516,40.244-42.619,40.244-73.418
	C442.687,154.766,442.401,152.818,441.838,150.941z"/>
<path style="fill:#BDFDFF;" d="M402.443,325.33c-6.274-2.321-13.051-3.595-20.122-3.595c-7.07,0-13.848,1.272-20.122,3.595
	c-22.165,8.203-38.011,29.553-38.011,54.536c0,9.476,2.294,18.421,6.334,26.335c4.046,7.924,9.844,14.809,16.899,20.122
	c9.726,7.326,21.814,11.675,34.901,11.675c6.313,0,12.387-1.025,18.084-2.895c23.224-7.624,40.046-29.495,40.046-55.237
	C440.451,354.885,424.608,333.535,402.443,325.33z"/>
<path style="fill:#57A4FF;" d="M464.604,433.691c10.158-15.478,16.091-33.965,16.091-53.823c0-47.35-33.627-86.987-78.252-96.299
	c-6.498-1.356-13.227-2.077-20.122-2.077c-6.895,0-13.624,0.72-20.122,2.077c-44.628,9.313-78.255,48.949-78.255,96.299
	c0,9.122,1.274,17.946,3.609,26.335c1.963,7.055,4.675,13.797,8.077,20.122c3.935,7.31,8.765,14.064,14.344,20.122
	c17.992,19.533,43.759,31.797,72.346,31.797c19.859,0,38.349-5.935,53.828-16.095l41.501,41.501
	c3.929,3.929,9.079,5.894,14.229,5.894c5.15,0,10.3-1.965,14.228-5.894c7.858-7.858,7.858-20.598,0-28.457L464.604,433.691z
	 M400.405,435.103c-5.696,1.871-11.77,2.895-18.084,2.895c-13.087,0-25.176-4.349-34.901-11.675
	c-7.055-5.314-12.853-12.198-16.899-20.122c-4.041-7.912-6.334-16.857-6.334-26.335c0-24.984,15.844-46.333,38.011-54.536
	c6.274-2.323,13.053-3.595,20.122-3.595c7.071,0,13.848,1.273,20.122,3.595c22.165,8.204,38.008,29.554,38.008,54.536
	C440.451,405.608,423.629,427.481,400.405,435.103z"/>
<path style="fill:#C9DDF4;" d="M167.097,224.922c-4.688-3.737-8.996-7.932-12.827-12.541c-3.83,4.609-8.137,8.804-12.826,12.541
	c-14.902,11.876-33.756,18.998-54.248,18.998c-2.259,0-4.491-0.114-6.707-0.284c-6.966-0.534-13.706-1.877-20.122-3.957
	c-7.157-2.321-13.904-5.547-20.122-9.537v196.183c0,11.113,9.009,20.122,20.122,20.122h160.977V243.92
	C200.851,243.92,181.998,236.798,167.097,224.922z"/>
<path style="fill:#FF0C38;" d="M80.489,243.636c2.216,0.17,4.448,0.284,6.707,0.284c20.492,0,39.346-7.122,54.248-18.998
	c4.688-3.737,8.996-7.932,12.826-12.541c3.831,4.609,8.137,8.804,12.827,12.541c14.901,11.877,33.754,18.998,54.247,18.998V2.455
	H60.366c-8.886,0-16.72,5.829-19.273,14.339L0.849,150.941C0.286,152.818,0,154.766,0,156.724c0,30.799,16.067,57.901,40.244,73.418
	c6.218,3.991,12.965,7.217,20.122,9.537C66.783,241.758,73.522,243.102,80.489,243.636z"/>
<g>
</g>
<g>
</g>
<g>
</g>
<g>
</g>
<g>
</g>
<g>
</g>
<g>
</g>
<g>
</g>
<g>
</g>
<g>
</g>
<g>
</g>
<g>
</g>
<g>
</g>
<g>
</g>
<g>
</g>
</svg>
