<?xml version="1.0"?>
<svg xmlns="http://www.w3.org/2000/svg" xmlns:xlink="http://www.w3.org/1999/xlink" version="1.1" id="Layer_1" x="0px" y="0px" viewBox="0 0 512.001 512.001" style="enable-background:new 0 0 512.001 512.001;" xml:space="preserve" width="512px" height="512px" class=""><g transform="matrix(0.9999 0 0 0.9999 0.0256 0.0256)"><g>
	<g>
		<path d="M289.442,372.958c-18.439-18.438-48.442-18.437-66.881,0c-18.439,18.439-18.439,48.443-0.001,66.881h0.001    c9.219,9.219,21.329,13.828,33.439,13.828c12.111,0,24.223-4.61,33.442-13.829C307.88,421.4,307.88,391.397,289.442,372.958z     M278.704,429.101c-12.516,12.517-32.886,12.52-45.407,0h0.001c-12.518-12.518-12.518-32.887,0-45.407    c12.519-12.519,32.888-12.519,45.407,0C291.223,396.214,291.223,416.582,278.704,429.101z" data-original="#000000" class="active-path" data-old_color="#000000" fill="#6D1D40"/>
	</g>
</g><g>
	<g>
		<path d="M366.766,295.635c-29.543-29.541-68.878-45.81-110.764-45.81c-41.885,0-81.224,16.271-110.765,45.81    c-13.034,13.036-13.034,34.247,0.001,47.283c13.036,13.037,34.248,13.036,47.285,0c8.554-8.555,18.538-15.178,29.672-19.685    c3.886-1.573,5.761-6,4.189-9.886s-5.998-5.763-9.887-4.189c-13.031,5.275-24.71,13.021-34.71,23.023    c-7.117,7.116-18.697,7.116-25.811,0c-7.115-7.116-7.115-18.695,0-25.81c26.674-26.674,62.196-41.362,100.027-41.362    c37.829,0,73.353,14.69,100.025,41.362c7.116,7.116,7.116,18.693,0,25.809c-3.446,3.447-8.03,5.345-12.904,5.345    s-9.459-1.898-12.905-5.345c-21.666-21.667-51.672-32.743-82.334-30.384c-4.181,0.322-7.31,3.971-6.987,8.152    c0.322,4.18,3.969,7.32,8.152,6.988c26.236-2.018,51.905,7.452,70.431,25.981c6.315,6.315,14.712,9.793,23.643,9.793    c8.931,0,17.327-3.478,23.642-9.793C379.802,329.883,379.802,308.671,366.766,295.635z" data-original="#000000" class="active-path" data-old_color="#000000" fill="#6D1D40"/>
	</g>
</g><g>
	<g>
		<path d="M434.494,227.905C386.892,180.301,323.5,154.085,256,154.085s-130.89,26.217-178.491,73.82    c-13.036,13.037-13.037,34.249,0,47.283c13.037,13.035,34.248,13.036,47.284,0C159.781,240.2,206.378,220.931,256,220.93    c49.624,0,96.222,19.27,131.21,54.258c6.315,6.315,14.711,9.793,23.642,9.793c8.931,0,17.328-3.478,23.643-9.793    C447.528,262.153,447.528,240.942,434.494,227.905z M423.757,264.451c-3.446,3.447-8.031,5.345-12.905,5.345    s-9.458-1.898-12.904-5.345C360.092,226.594,309.68,205.745,256,205.745c-53.678,0-104.089,20.849-141.945,58.705    c-7.113,7.116-18.691,7.116-25.81,0c-7.115-7.115-7.114-18.692,0.002-25.809C132.98,193.906,192.556,169.27,256,169.27    c63.445,0,123.022,24.637,167.758,69.372C430.872,245.757,430.872,257.336,423.757,264.451z" data-original="#000000" class="active-path" data-old_color="#000000" fill="#6D1D40"/>
	</g>
</g><g>
	<g>
		<path d="M502.224,160.176c-38.708-38.708-84.373-66.995-135.726-84.077c-3.979-1.322-8.277,0.829-9.6,4.809    s0.828,8.277,4.807,9.601c49.093,16.329,92.758,43.382,129.781,80.406c7.115,7.116,7.115,18.693-0.001,25.809    c-7.114,7.117-18.693,7.116-25.809,0c-55.91-55.911-130.376-86.704-209.676-86.704c-79.301,0-153.766,30.792-209.676,86.703    c-3.448,3.447-8.032,5.346-12.906,5.346s-9.457-1.898-12.904-5.345c-7.115-7.116-7.116-18.694-0.002-25.809    c62.807-62.805,146.438-97.394,235.488-97.394c24.866,0,49.624,2.719,73.589,8.081c4.095,0.914,8.151-1.66,9.067-5.751    c0.915-4.092-1.66-8.151-5.752-9.067c-25.052-5.606-50.927-8.449-76.905-8.449c-93.106,0-180.55,36.168-246.226,101.842    c-13.035,13.037-13.034,34.248,0.002,47.282c6.313,6.316,14.709,9.793,23.642,9.793c8.931,0,17.327-3.478,23.643-9.793    c53.043-53.044,123.693-82.256,198.939-82.256c75.244,0,145.895,29.213,198.939,82.257c13.036,13.036,34.249,13.035,47.284,0    C515.26,194.423,515.26,173.212,502.224,160.176z" data-original="#000000" class="active-path" data-old_color="#000000" fill="#6D1D40"/>
	</g>
</g></g> </svg>
