<svg id="Capa_1" enable-background="new 0 0 512 512" height="512" viewBox="0 0 512 512" width="512" xmlns="http://www.w3.org/2000/svg"><g><path d="m496.78 222.821c-8.824-5.22-19.341-5.544-28.345-.557-28.637 15.909-46.435 46.07-46.435 78.736v121c0 16.538-13.462 30-30 30h-196v60h196c49.629 0 90-40.371 90-90v-121c0-11.147 6.152-21.328 16.055-26.543 8.599-4.556 13.945-14.224 13.945-25.269 0-10.751-5.815-20.844-15.22-26.367z" fill="#a34f3e"/><path d="m245.307 162.836-94.307 47.109-30 14.985v31.07c0 8.276-6.724 15-15 15h-76c-16.569 0-30 13.431-30 30s13.431 30 30 29.99h92.551c-15.342 15.019-26.168 34.626-29.94 56.348-2.021 11.646-2.109 24.452-.337 35.922-34.819 6.46-61.274 37.075-61.274 73.74 0 8.291 6.709 15 15 15h105 40.137c80.738 0 169.863-76.729 169.863-181 0-74.106-46.494-141.694-115.693-168.164z" fill="#a34f3e"/><path d="m361 331c0-74.106-46.494-141.694-115.693-168.164l-94.307 47.109v302.055h40.137c80.738 0 169.863-76.729 169.863-181z" fill="#6d1d40"/><path d="m231.127 31.908c-22.105-19.995-51.116-31.908-80.127-31.908s-58.022 11.913-80.127 31.908c-37.017-6.767-70.873 22.735-70.873 59.092 0 22.778 12.847 43.154 32.783 53.262 10.972 55.737 60.883 96.738 118.217 96.738s106.245-41.001 117.217-96.738c19.936-10.108 32.783-30.484 32.783-53.262 0-36.357-32.856-65.859-69.873-59.092z" fill="#e68a44"/><path d="m268.217 144.262c19.936-10.108 32.783-30.484 32.783-53.262 0-36.357-32.856-65.859-69.873-59.092-22.105-19.995-51.116-31.908-80.127-31.908v241c57.334 0 106.245-41.001 117.217-96.738z" fill="#a34f3e"/><path d="m181 61c-11.338 0-21.885 4.292-30 11.895-8.115-7.603-18.662-11.895-30-11.895-24.814 0-45 20.186-45 45 0 12.832 5.508 24.668 15.073 33.091 1.612 31.655 27.876 56.909 59.927 56.909s58.315-25.254 59.927-56.909c9.565-8.423 15.073-20.259 15.073-33.091 0-24.814-20.186-45-45-45z" fill="#fff7cc"/><path d="m210.927 139.091c9.565-8.423 15.073-20.259 15.073-33.091 0-24.814-20.186-45-45-45-11.338 0-21.885 4.292-30 11.895v123.105c32.051 0 58.315-25.254 59.927-56.909z" fill="#ffe6b3"/></g></svg>