<svg id="Capa_1" enable-background="new 0 0 512 512" height="512" viewBox="0 0 512 512" width="512" xmlns="http://www.w3.org/2000/svg"><g><path d="m106.017 271h-61c-24.813 0-45 20.187-45 45s20.187 45 45 44.99h56.051c-3.95 8.282-6.833 17.119-8.432 26.344-2.052 11.836-2.131 24.131-.314 35.919-34.838 6.455-61.305 37.069-61.305 73.747 0 8.284 6.716 15 15 15h331c57.897 0 105-47.103 105-105v-121c0-5.576 3.085-10.667 8.051-13.287 28.412-14.989 30.237-59.645-.636-77.813-13.565-7.982-29.737-8.263-43.261-.752-33.403 18.553-54.154 53.748-54.154 91.852v121c0 8.271-6.729 15-15 15h-39.721c16.117-27.4 24.721-58.583 24.721-91 0-69.006-40.253-132.426-101.673-162.613 3.492-7.941 6.162-16.349 7.889-25.123 19.938-10.104 32.784-30.479 32.784-53.263 0-33.084-26.916-60-60-60-3.265 0-6.54.301-9.877.911-22.105-20-50.231-30.912-80.123-30.912s-58.019 10.912-80.124 30.911c-3.336-.61-6.612-.911-9.876-.911-32.895 0-61 26.584-61 60 0 22.785 12.85 43.161 32.787 53.265 9.047 45.789 43.954 81.624 88.213 92.96v19.775c0 8.271-6.729 15-15 15zm271 181c24.813 0 45-20.187 45-45v-121c0-27.214 14.837-52.36 38.721-65.626 5.959-3.309 11.411-.836 13.479.381 10.984 6.464 9.187 21.553 1.853 25.424-14.836 7.827-24.053 23.086-24.053 39.821v121c0 41.355-33.645 75-75 75h-96.557c12.684-8.434 24.35-18.474 34.781-30zm-315.835-321.167c-.705-5.807-4.723-10.675-10.291-12.469-12.486-4.022-20.874-15.421-20.874-28.364 0-16.262 14.196-30 31-30 2.895 0 6.002.572 9.5 1.75 5.51 1.855 11.599.359 15.622-3.843 17.226-17.996 40.267-27.907 64.878-27.907s47.651 9.911 64.878 27.907c4.022 4.201 10.112 5.699 15.622 3.843 3.498-1.178 6.605-1.75 9.5-1.75 16.542 0 30 13.458 30 30 0 12.943-8.389 24.342-20.874 28.364-5.568 1.794-9.586 6.661-10.291 12.469-5.481 45.133-43.672 79.167-88.835 79.167-45.734 0-84.355-34.034-89.835-79.167zm183.666 63.384c52.563 24.729 87.169 78.361 87.169 136.783 0 83.078-67.578 151-151 151-.001 0-.003 0-.004 0h-117.425c6.19-17.461 22.873-30 42.43-30h5.121c10.331 0 17.595-10.234 14.143-19.999-4.301-12.168-5.396-26.212-3.086-39.545 5.271-30.42 31.316-55.883 61.929-60.547 8.19-1.248 13.817-8.898 12.57-17.088-1.248-8.189-8.902-13.819-17.088-12.57-21.841 3.327-41.703 13.738-57.044 28.748h-77.546c-8.271 0-15-6.729-15-15s6.729-15 15-15h61c24.813 0 45-20.187 45-45v-16c37.729.001 71.808-17.756 93.831-45.782z"/><path d="m210.938 138.083c9.574-8.424 15.078-20.255 15.078-33.083 0-24.813-20.187-45-45-45-11.332 0-21.886 4.294-30 11.896-8.114-7.602-18.668-11.896-30-11.896-24.813 0-45 20.187-45 45 0 12.828 5.504 24.659 15.078 33.083 1.611 31.657 27.873 56.917 59.923 56.917s58.311-25.26 59.921-56.917zm-89.921-2.976c.045-.555.211-1.363.366-2.969.567-5.88-2.37-11.546-7.502-14.472-4.924-2.807-7.864-7.542-7.864-12.666 0-8.271 6.729-15 15-15 5.124 0 9.858 2.94 12.666 7.865 2.927 5.134 8.591 8.071 14.477 7.501 4.879-.472.847-.471 5.715 0 5.881.57 11.55-2.367 14.477-7.501 2.806-4.925 7.541-7.865 12.665-7.865 8.271 0 15 6.729 15 15 0 5.124-2.94 9.859-7.864 12.666-5.132 2.926-8.069 8.591-7.502 14.472.161 1.665.321 2.414.366 2.969-.058 16.494-13.493 29.893-30 29.893s-29.943-13.4-30-29.893z"/></g></svg>