<svg height="512" viewBox="0 0 512 512" width="512" xmlns="http://www.w3.org/2000/svg"><g id="Flat"><path d="m354.933 109.466a19.776 19.776 0 0 1 -10.933-17.689 19.776 19.776 0 0 1 16-19.407v-32.37l-7.716-7.716a28.284 28.284 0 0 0 -20-8.284 28.284 28.284 0 0 0 -28.284 28.284v31.54a58.533 58.533 0 0 0 32.356 52.354 57.243 57.243 0 0 1 31.644 51.2 57.244 57.244 0 0 1 -22.9 45.8l-9.1 6.822v64l29.251-19.5a96 96 0 0 0 42.749-79.878v-9.291a96 96 0 0 0 -53.067-85.865z" fill="#cfcfcd"/><path d="m433.778 440.3-25.7-42.831a27.738 27.738 0 0 0 -23.778-13.469h-96.3l16.585-77.4a28.61 28.61 0 0 0 -27.975-34.6 28.61 28.61 0 0 0 -28.61 28.61v115.39h136l24 40-3.407 6.814a14.249 14.249 0 0 0 2.669 16.448 14.247 14.247 0 0 0 18.624 1.323 30.648 30.648 0 0 0 7.892-40.285z" fill="#bfbfbd"/><path d="m367.791 192a57.231 57.231 0 0 1 -22.691 41.173l-9.1 6.827v64l29.251-19.5a96 96 0 0 0 42.749-79.878v-9.291q0-1.669-.059-3.331z" fill="#404f66"/><path d="m360 256v2.16c.01 38.56-31.25 69.83-70.61 69.83h-3.77a144.114 144.114 0 0 1 -99-39.34h-.01a143.949 143.949 0 0 1 -27.64-35.86l-6.97-12.79-15.01 12.01a15.108 15.108 0 0 1 -9.54 3.4 15.385 15.385 0 0 1 -15.45-15.41l-15.01 12.01a15.108 15.108 0 0 1 -9.54 3.4 15.385 15.385 0 0 1 -15.45-15.41 56 56 0 0 1 56-56h160a72 72 0 0 1 72 72z" fill="#4d5e78"/><path d="m360 256v2.16c.01 38.56-31.25 69.83-70.61 69.83h-3.77a144.114 144.114 0 0 1 -99-39.34c53.13-17.9 107.14-43.77 154.63-81.11a71.731 71.731 0 0 1 18.75 48.46z" fill="#485870"/><path d="m363.777 72h23.035a13.188 13.188 0 0 0 2.588-26.12l-29.4-5.88v32.37a19.833 19.833 0 0 1 3.777-.37z" fill="#ffb531"/><path d="m328 48h16v16h-16z" fill="#404f66"/><path d="m236.269 271.178-84.269 64.822-24 88-48 32-7.523-3.761a13.149 13.149 0 0 0 -15.177 2.461 13.15 13.15 0 0 0 0 18.6l8.325 8.325a21.772 21.772 0 0 0 15.393 6.375 21.777 21.777 0 0 0 12.662-4.06l51.844-37.06a36.871 36.871 0 0 0 13.208-17.394l25.268-69.486 54.135-24.06a151.606 151.606 0 0 0 33.131-20.152 28.351 28.351 0 0 0 2.334-42.188 28.351 28.351 0 0 0 -37.331-2.422z" fill="#cfcfcd"/><path d="m288 184h-59.1c-6.006 0-23.372 0-37.765 0a17.638 17.638 0 0 0 -17.293 21.1 17.635 17.635 0 0 0 20.745 13.835l21.119-4.215-14.682 11.011a17.391 17.391 0 0 0 18.212 29.469l19.512-9.755-9.781 13.041a18.445 18.445 0 0 0 6.507 27.565 18.444 18.444 0 0 0 20.253-2.493l24.935-16.617a88.237 88.237 0 0 0 23.338-22.791l16-52.65a71.68 71.68 0 0 0 -32-7.5z" fill="#4d5e78"/><path d="m166 198.673a25.685 25.685 0 0 0 23.319 20.545 25.395 25.395 0 0 0 28.5 37.015 26.444 26.444 0 0 0 42.72 25.739l24.561-16.372a95.9 95.9 0 0 0 25.452-24.859 8 8 0 0 0 -13.1-9.183 79.965 79.965 0 0 1 -21.223 20.727l-24.938 16.615a8.063 8.063 0 0 0 -.77.583 10.446 10.446 0 0 1 -15.155-14.2l9.781-13.041a8 8 0 0 0 -9.977-11.955l-19.512 9.756a9.38 9.38 0 0 1 -10.84-1.76 9.391 9.391 0 0 1 1.006-14.152l14.681-11.011a8 8 0 0 0 -6.366-14.245l-21.118 4.216a9.638 9.638 0 1 1 -1.884-19.091h96.863-120.617a25.55 25.55 0 0 0 -1.383 14.673z" fill="#404f66"/></g></svg>