<?xml version="1.0"?>
<svg xmlns="http://www.w3.org/2000/svg" height="512px" viewBox="-14 0 512 512" width="512px" class=""><g transform="matrix(0.99 0 0 0.99 2.42 2.56)"><path d="m89.960938 4.132812c-3.605469 0-7.113282.589844-10.414063 1.726563-5.300781-3.75-11.710937-5.859375-18.464844-5.859375-12.070312 0-22.695312 6.769531-28.125 16.796875-14.9375 2.679687-26.304687 15.769531-26.304687 31.464844 0 6.996093 2.21875 13.640625 6.421875 19.222656l1.910156 2.535156 39.222656 20.292969 47.910157-8.339844 19.808593-42.804687v-3.070313c0-17.625-14.339843-31.964844-31.964843-31.964844zm0 0" fill="#fa235e" data-original="#FA235E" class="active-path" style="fill:#000000" data-old_color="#fa235e"/><path d="m131.410156 512h-48.195312v-30.117188h48.195312c8.234375 0 14.933594-6.699218 14.933594-14.933593v-68.195313h30.117188v68.195313c0 24.839843-20.210938 45.050781-45.050782 45.050781zm0 0" fill="#ffda2d" data-original="#FFDA2D" class="" style="fill:#000000" data-old_color="#ffda2d"/><path d="m178.945312 512h-48.195312v-30.117188h48.195312c8.238282 0 14.9375-6.699218 14.9375-14.933593v-95.140625h30.117188v95.140625c0 24.839843-20.210938 45.050781-45.054688 45.050781zm0 0" fill="#fdbf00" data-original="#FDBF00" class="" style="fill:#000000" data-old_color="#fdbf00"/><path d="m193.882812 371.808594v95.140625c0 4.726562-2.214843 8.941406-5.65625 11.679687v32.40625c20.40625-4.292968 35.773438-22.425781 35.773438-44.085937v-95.140625zm0 0" fill="#f6a313" data-original="#F6A313" class="" style="fill:#000000" data-old_color="#f6a313"/><path d="m64.902344 187.507812h-8.980469c-10.472656 0-19.964844-5.351562-25.386719-14.3125-5.421875-8.960937-5.757812-19.847656-.894531-29.128906l4.867187-9.296875 30.394532 4.78125zm0 0" fill="#fa235e" data-original="#FA235E" class="active-path" style="fill:#000000" data-old_color="#fa235e"/><path d="m34.507812 134.769531-34.507812-20.257812 58.1875-27.046875 5.59375 59.066406zm0 0" fill="#fdbf00" data-original="#FDBF00" class="" style="fill:#000000" data-old_color="#fdbf00"/><path d="m342.023438 431.601562 26.269531-55.210937c14.046875-29.53125 6.203125-64.691406-19.074219-85.511719-8.710938-7.171875-16.859375-11.6875-25.671875-13.886718 2.453125 7.164062 3.210937 14.890624 2.085937 22.503906-1.9375 13.125-9.324218 24.953125-20.265624 32.457031l-25.691407 17.617187-.621093.34375-121.53125 67.519532-66.53125-66.53125c-26.207032-26.207032-41.238282-61.8125-41.238282-97.6875v-149.882813c0-20.652343 16.742188-37.398437 37.394532-37.398437 22.453124 0 42.078124 15.175781 47.730468 36.90625l20.171875 77.554687c7.113281 27.351563 31.820313 46.453125 60.082031 46.453125h17.375c1.800782-30.511718 14.453126-59.023437 36.082032-80.960937 23.386718-23.722657 54.59375-37.0625 87.875-37.566407.640625-.007812 1.289062-.011718 1.929687-.011718 68.5625 0 124.945313 55.210937 126.101563 123.964844.183594 10.78125-1.011719 21.542968-3.542969 31.976562l-14.417969 59.414062-14.824218-59.3125c-9.914063-39.664062-45.882813-67.667968-87.472657-68.101562-5.589843-.066406-10.5.859375-14.78125 2.289062 14.660157 3.816407 32.164063 11.714844 50 27.375 21.210938 18.625 33.761719 44.792969 35.339844 73.683594 1.542969 28.28125-7.542969 55.914063-25.578125 77.8125-5.382812 6.539063-11.539062 12.425782-18.292969 17.492188zm0 0" fill="#e5f3fb" data-original="#E5F3FB" class="" style="fill:#000000" data-old_color="#e5f3fb"/><path d="m484.496094 232.273438c-1.15625-68.75-57.539063-123.964844-126.101563-123.964844-.640625 0-1.285156.003906-1.929687.015625-33.28125.5-64.488282 13.839843-87.875 37.5625-21.628906 21.9375-34.28125 50.449219-36.078125 80.964843h-17.378907c-9.542968 0-18.679687-2.1875-26.875-6.128906v179.636719l90.800782-50.445313.617187-.34375 25.691407-17.617187c10.941406-7.503906 18.328124-19.332031 20.265624-32.457031 1.125-7.613282.367188-15.339844-2.085937-22.503906 8.8125 2.199218 16.960937 6.714843 25.671875 13.886718 25.277344 20.820313 33.121094 55.984375 19.074219 85.511719l-26.269531 55.210937 48.90625-36.699218c6.753906-5.066406 12.90625-10.953125 18.292968-17.492188 18.035156-21.898437 27.117188-49.53125 25.574219-77.8125-1.578125-28.890625-14.125-55.058594-35.335937-73.683594-17.839844-15.660156-35.339844-23.554687-50-27.375 4.277343-1.429687 9.1875-2.355468 14.78125-2.285156 41.585937.429688 77.558593 28.433594 87.472656 68.097656l14.824218 59.3125 14.417969-59.410156c2.53125-10.4375 3.722657-21.195312 3.539063-31.980468zm0 0" fill="#cbe8f8" data-original="#CBE8F8" class="" style="fill:#000000" data-old_color="#cbe8f8"/><path d="m484.496094 232.273438c-1.15625-68.75-57.539063-123.964844-126.101563-123.964844-.640625 0-1.285156.003906-1.929687.015625-33.28125.5-64.488282 13.839843-87.875 37.5625-21.628906 21.9375-34.28125 50.449219-36.078125 80.964843 0 0 14.246093 25.367188 43.414062 38.699219 21.734375 9.9375 33.777344 8.296875 47.621094 11.441407 8.8125 2.199218 16.964844 6.714843 25.671875 13.886718 25.28125 20.820313 33.125 55.984375 19.074219 85.511719l-26.269531 55.210937 48.90625-36.699218c6.753906-5.066406 12.90625-10.953125 18.292968-17.492188 18.035156-21.898437 27.117188-49.53125 25.574219-77.8125-1.578125-28.890625-14.125-55.058594-35.335937-73.683594-17.839844-15.660156-35.339844-23.554687-50-27.375 4.277343-1.429687 9.1875-2.355468 14.78125-2.285156 41.585937.429688 77.558593 28.433594 87.472656 68.097656l14.824218 59.3125 14.417969-59.410156c2.53125-10.4375 3.722657-21.195312 3.539063-31.980468zm0 0" fill="#c91341" data-original="#C91341" class="" style="fill:#000000" data-old_color="#c91341"/><path d="m198.800781 319.257812c-19.730469 0-39.097656-6.535156-57.429687-19.566406-23.726563-16.867187-37.195313-38.964844-37.757813-39.898437l25.792969-15.542969-12.894531 7.769531 12.875-7.804687c.109375.179687 11.265625 18.257812 30.125 31.414062 20.496093 14.300782 41.21875 17.253906 63.066406 8.910156-3.523437-9.796874-13.734375-25.515624-43.34375-34.667968l8.894531-28.773438c66.96875 20.699219 66.464844 70.535156 66.410156 72.644532l-.222656 8.816406-7.800781 4.117187c-15.90625 8.394531-31.929687 12.582031-47.714844 12.582031zm0 0" fill="#cbe8f8" data-original="#CBE8F8" class="" style="fill:#000000" data-old_color="#cbe8f8"/><path d="m188.257812 221.140625v31.957031c22.726563 9.296875 31.183594 22.714844 34.320313 31.441406-11.71875 4.476563-23.109375 5.695313-34.320313 3.664063v30.417969c3.5.417968 7.015626.636718 10.542969.636718 15.785157 0 31.808594-4.1875 47.714844-12.582031l7.800781-4.117187.222656-8.8125c.058594-2.109375.554688-51.882813-66.28125-72.605469zm0 0" fill="#add1e4" data-original="#ADD1E4" class="" data-old_color="#add1e4" style="fill:#000000"/></g> </svg>
