<?xml version="1.0"?>
<svg xmlns="http://www.w3.org/2000/svg" height="512px" viewBox="0 0 59 51" width="512px" class="hovered-paths"><g transform="matrix(0.9995 0 0 0.9995 0.014747 0.0127474)"><g id="017---Peacock" fill="none"><g fill="#f29c1f"><path id="Shape" d="m34 50c-.4921797.0071559-.9163726-.3449242-1-.83l-1-5.58c-.0625215-.3572656.0703052-.7207475.3484455-.9535255.2781404-.2327779.6593382-.2994876 1.0000001-.175.3406618.1244877.5890329.4212599.6515544.7785255l1 5.59c.0506089.2931773-.0319521.5936652-.2252526.8198268s-.4772657.3545092-.7747474.3501732z" data-original="#F29C1F" class="active-path" style="fill:#000000" data-old_color="#F29C1F"/><path id="Shape" d="m26 50c-.2974817.004336-.5814469-.1240116-.7747474-.3501732s-.2758615-.5266495-.2252526-.8198268l1-5.59c.0625215-.3572656.3108926-.6540378.6515544-.7785255.3406619-.1244876.7218597-.0577779 1.0000001.175.2781403.232778.410967.5962599.3484455.9535255l-1 5.58c-.0836274.4850758-.5078203.8371559-1 .83z" data-original="#F29C1F" class="active-path" style="fill:#000000" data-old_color="#F29C1F"/><path id="Shape" d="m23 51c-.4825282.006101-.9005823-.3332612-.9938056-.8067377-.0932234-.4734766.16498-.9459879.6138056-1.1232623l2-.81c2.81-1.13 5.5 1.6 3.91 2.59-.2253123.1410213-.4974983.1865377-.7564336.1264947-.2589352-.0600429-.4833119-.2207043-.6235664-.4464947-.4344166-.5130426-1.1542507-.6797838-1.77-.41-2.13.88-2.12.88-2.38.88z" data-original="#F29C1F" class="active-path" style="fill:#000000" data-old_color="#F29C1F"/><path id="Shape" d="m37 51c-.28 0-.24 0-2.38-.88-.6157493-.2697838-1.3355834-.1030426-1.77.41-.1402545.2257904-.3646312.3864518-.6235664.4464947-.2589353.060043-.5311213.0145266-.7564336-.1264947-1.57-1 1.08-3.73 3.91-2.59l2 .81c.4488256.1772744.707029.6497857.6138056 1.1232623-.0932233.4734765-.5112774.8128387-.9938056.8067377z" data-original="#F29C1F" class="active-path" style="fill:#000000" data-old_color="#F29C1F"/></g><path id="Shape" d="m58.75 22.3c-.7559457-2.8083967-3.1190247-4.8918447-6-5.29 1.4661195-2.795336.9522617-6.2183571-1.27-8.46-2.07-2.08-5.78-2.55-8.36-1.55-.1428329-3.13282212-2.2602634-5.82882952-5.27-6.71h-.07c-2.9647253-.71311646-6.0615759.48104189-7.78 3-1.7146775-2.52368181-4.81488-3.71913264-7.78-3-3.1431191.88382552-5.3264222 3.73515425-5.36 7-2.7802785-1.39436002-6.141907-.8429031-8.33098274 1.36665253-2.18907571 2.20955567-2.70920608 5.57617347-1.28901726 8.34334747-3.65057056.4879075-6.34874789 3.6453863-6.26150892 7.3273842.08723898 3.6819979 2.93192737 6.7081475 6.60150892 7.0226158.17 0 .45 0 0 0 1.38535083 3.3240228 4.7498598 5.3814563 8.34 5.1l6.08-.45c0 4.418278 3.581722 8 8 8s8-3.581722 8-8l6.08.47c3.5825251.24999 6.9301092-1.7970939 8.34-5.1 2.1238969-.1929337 4.0542697-1.3137122 5.2747996-3.0625599 1.2205299-1.7488478 1.6066924-3.9473386 1.0552004-6.0074401z" fill="#4fba6f" data-original="#4FBA6F" class="" style="fill:#000000" data-old_color="#4fba6f"/><path id="Shape" d="m30 9.5v1.5c-1.2697741.1942294-2.2749877 1.1753179-2.5 2.44v.06c-1.8052304.8899941-3.9819224.4730234-5.3304458-1.0211087-1.3485233-1.4941322-1.5409025-3.70203691-.4711124-5.40688159 1.06979-1.70484468 3.1415648-2.49199276 5.0735165-1.92762688 1.9319516.56436588 3.2542088 2.34298587 3.2380417 4.35561717z" fill="#f0c419" data-original="#F0C419" class="" style="fill:#000000" data-old_color="#f0c419"/><path id="Shape" d="m51.49 8.55c-2.11-2.11-5.91-2.55-8.49-1.55-.07.6-1.72 1.4-2 2l1.48 1.44c0 .1.61-1.32-8 17.23.33.82.69 1.66 1.09 2.51l14.9-10.53c1.7597308-1.2311712 2.8880342-3.1747714 3.0845585-5.3134189.1965244-2.1386475-.5586723-4.2553262-2.0645585-5.7865811z" fill="#4fba6f" data-original="#4FBA6F" class="" style="fill:#000000" data-old_color="#4fba6f"/><path id="Shape" d="m37.3 13-1.92-1.11c-1.7096719-.6757549-3.5437888-.9791683-5.38-.89v-1.5c-.0106271-2.10320056 1.4370092-3.9332366 3.4861697-4.40705766 2.0491606-.47382105 4.15321.53496973 5.0669313 2.42935061.9137213 1.89438087.3933696 4.16900535-1.253101 5.47770705z" fill="#f0c419" data-original="#F0C419" class="" style="fill:#000000" data-old_color="#f0c419"/><path id="Shape" d="m7.58 31.37c1.38284514 3.3261687 4.7490914 5.3846646 8.34 5.1 7.67-.59 2.93-.47 22.08-.47l6.08.47c3.5901402.2814563 6.9546492-1.7759772 8.34-5.1.04-.1 1.33 0-44.84 0z" fill="#24ae5f" data-original="#24AE5F" class="" style="fill:#000000" data-old_color="#24ae5f"/><path id="Shape" d="m52.42 31.37c-1.3853508 3.3240228-4.7498598 5.3814563-8.34 5.1-4.3434494-.465086-8.7143718-.6221451-13.08-.47v-4.63z" fill="#4fba6f" data-original="#4FBA6F" class="" style="fill:#000000" data-old_color="#4fba6f"/><path id="Shape" d="m37 15h-2.16c-.459171-.0182755-.8716939.2787409-1 .72-.2275406.8218946-.7465275 1.5328356-1.46 2-.2738731.1883916-.4263702.5086354-.4.84.1269438 1.1625781.3476627 2.3129916.66 3.44-1.5819363 1.1994061-3.7421392 1.2910752-5.42.23l-.34-.23c.25-3.16-.07-4.4.61-8.46.0300518-.1979506.0803145-.3922995.15-.58.4215108-1.1922886 1.5454199-1.9922239 2.81-2 1.337814.0105321 2.6675003.2091435 3.95.59 1.0753539.318312 2.0895031.8152452 3 1.47.5467619.1104569.9004569.6432381.79 1.19s-.6432381.9004569-1.19.79z" fill="#bdc3c7" data-original="#BDC3C7" class="" style="fill:#000000" data-old_color="#bdc3c7"/><path id="Shape" d="m37 15h-2.16c-.459171-.0182755-.8716939.2787409-1 .72-.2275406.8218946-.7465275 1.5328356-1.46 2-.2738731.1883916-.4263702.5086354-.4.84.1269438 1.1625781.3476627 2.3129916.66 3.44-1.0349833.7859336-2.3477412 1.1114108-3.63.9.22-3.38 0-4.53.6-8.34 0 0 0 0 0-.06.1885489-1.08485.9562531-1.9792254 2-2.33.87-.35 3.22 0 4.13.23.32.08.77.22.77.22l.79.46c.4259301.17692.6756151.6221936.6044146 1.0778773-.0712006.4556837-.4448163.8035665-.9044146.8421227z" fill="#ecf0f1" data-original="#ECF0F1" class="" style="fill:#000000" data-old_color="#ecf0f1"/><path id="Shape" d="m38 36c0 4.418278-3.581722 8-8 8s-8-3.581722-8-8c0 0 0-2 2-5 1.7150643-2.7037825 2.7067607-5.8028335 2.88-9 .2414066.1578268.4918338.3014051.75.43 1.6148611.8222631 3.5579076.6473889 5-.45 2.11 8.26 5.37 11.61 5.37 14.02z" fill="#2980ba" data-original="#2980BA" class="" style="fill:#000000" data-old_color="#2980ba"/><path id="Shape" d="m36 36c0 4-2.4 8-6 8s-6-4-6-8c.1398462-1.7541659.6511564-3.4585333 1.5-5 1.2622011-2.6903861 1.9857946-5.6017456 2.13-8.57 1.3969718.7124595 3.0562356.6862409 4.43-.07 1.65 8.31 3.94 11.22 3.94 13.64z" fill="#3b97d3" data-original="#3B97D3" class="" data-old_color="#3b97d3" style="fill:#000000"/><path id="Shape" d="m58.75 22.3c-.7559457-2.8083967-3.1190247-4.8918447-6-5.29-.5469712 1.0465688-1.3312018 1.9506599-2.29 2.64l-14.85 10.53c.51 1.09.68 1.4 1.27 2.54l15.54-1.35c2.1238969-.1929337 4.0542697-1.3137122 5.2747996-3.0625599 1.2205299-1.7488478 1.6066924-3.9473386 1.0552004-6.0074401z" fill="#24ae5f" data-original="#24AE5F" class="" style="fill:#000000" data-old_color="#24ae5f"/><path id="Shape" d="m30 3.22v6.28c.0161671-2.0126313-1.3060901-3.79125129-3.2380417-4.35561717-1.9319517-.56436588-4.0037265.2227822-5.0735165 1.92762688-1.0697901 1.70484468-.8774109 3.91274939.4711124 5.40688159 1.3485234 1.4941321 3.5252154 1.9111028 5.3304458 1.0211087-.3116133 1.81709-.4754827 3.6564415-.49 5.5.0842984 3.0283268-.3937862 6.0460241-1.41 8.9l-8.07-17.48c-.8921878-1.96163158-.8862128-4.21448491.0163678-6.17135637.9025805-1.95687146 2.6123402-3.42387711 4.6836322-4.01864363 2.962975-.72118837 6.0626463.4700735 7.78 2.99z" fill="#4fba6f" data-original="#4FBA6F" class="" style="fill:#000000" data-old_color="#4fba6f"/><path id="Shape" d="m43.15 7.37c0 2.09-.65 3-2.81 7.69-2 4.36-.76 1.63-5.82 12.61-.868522-2.1496232-1.5705884-4.362804-2.1-6.62-.1953371-.8062097-.3356604-1.6247622-.42-2.45-.0263702-.3313646.1261269-.6516084.4-.84.712833-.4678369 1.231624-1.1785095 1.46-2 .1283061-.4412591.540829-.7382755 1-.72h2.14c.4871536.0043532.9065524-.342981.9930481-.822414.0864956-.479433-.185086-.9514286-.6430481-1.117586h-.05c.022427-.0174161.0425839-.037573.06-.06 1.6075897-1.3237449 2.0969207-3.57758674 1.182983-5.44877972-.9139376-1.87119298-2.992371-2.87087424-5.0247206-2.41678137s-3.4876492 2.24332478-3.5182624 4.32556109v-6.26c1.7184241-2.51895811 4.8152747-3.71311646 7.78-3h.07c3.1636105.92219555 5.3286928 3.83484402 5.3 7.13z" fill="#24ae5f" data-original="#24AE5F" class="" style="fill:#000000" data-old_color="#24ae5f"/><path id="Shape" d="m24.47 30.21-14.94-10.58c-.95760927-.686502-1.74174716-1.5870621-2.29-2.63-3.65057056.4879075-6.34874789 3.6453863-6.26150892 7.3273842.08723898 3.6819979 2.93192737 6.7081475 6.60150892 7.0226158l15.42 1.34c.56-1.08.71-1.18 1.47-2.48z" fill="#4fba6f" data-original="#4FBA6F" class="" style="fill:#000000" data-old_color="#4fba6f"/><path id="Shape" d="m25.59 27.9-8.07-17.48c-.4648581-1.00470093-.6907582-2.10339666-.66-3.21-3.394511-1.68333726-7.51279225-.46051177-9.43858416 2.8025626-1.92579191 3.2630745-1.00576593 7.4593937 2.10858416 9.6174374l14.94 10.58c.4372217-.7373533.8118666-1.5100585 1.12-2.31z" fill="#24ae5f" data-original="#24AE5F" class="" style="fill:#000000" data-old_color="#24ae5f"/><circle id="Oval" cx="51.05" cy="24.05" fill="#f0c419" r="3.95" data-original="#F0C419" class="" style="fill:#000000" data-old_color="#f0c419"/><circle id="Oval" cx="45.65" cy="14" fill="#f0c419" r="4.35" data-original="#F0C419" class="" style="fill:#000000" data-old_color="#f0c419"/><circle id="Oval" cx="8.95" cy="24.05" fill="#f0c419" r="3.95" data-original="#F0C419" class="" style="fill:#000000" data-old_color="#f0c419"/><circle id="Oval" cx="14.35" cy="14" fill="#f0c419" r="4.35" data-original="#F0C419" class="" style="fill:#000000" data-old_color="#f0c419"/></g></g> </svg>
