<svg height="512" viewBox="0 0 512 512" width="512" xmlns="http://www.w3.org/2000/svg"><g id="Flat"><path d="m214.5 408.5-15.619 3.471 15.146 68.029h-30.027v16h64v-16h-17.583l-3.555-16h21.138v-16h-24.694z" fill="#ffb531"/><path d="m297.973 480 14.527-66-15.619-3.471-8.187 37.471h-24.694v16h21.138l-3.555 16h-17.583v16h64v-16z" fill="#ffb531"/><path d="m200 396a44 44 0 0 1 -44 44h-60v-39.58a23.948 23.948 0 0 1 5.26-14.99l13.53-16.92a44.018 44.018 0 0 1 34.36-16.51h6.85a44 44 0 0 1 44 44z" fill="#b0b0ae"/><path d="m161.26 379.78-65.26 54.77v-20.85l55-46.2z" fill="#a3a3a1"/><path d="m180.82 399.24-47.86 40.76h-24.82l62.36-53z" fill="#a3a3a1"/><path d="m312 396a44 44 0 0 0 44 44h60v-39.58a23.948 23.948 0 0 0 -5.26-14.99l-13.53-16.92a44.018 44.018 0 0 0 -34.36-16.51h-6.85a44 44 0 0 0 -44 44z" fill="#b0b0ae"/><path d="m350.74 379.78 65.26 54.77v-20.85l-55-46.2z" fill="#a3a3a1"/><path d="m331.18 399.24 47.86 40.76h24.82l-62.36-53z" fill="#a3a3a1"/><path d="m256 256 158.71-91.631c27.553-15.908 32.772-53.657 10.354-76.234q-.6-.6-1.2-1.2c-22.577-22.418-60.326-17.2-76.234 10.354z" fill="#4d5e78"/><path d="m194.974 25.638q-.84.222-1.679.45c-30.621 8.335-44.83 43.657-28.962 71.14l91.667 158.772v-183.323a48.633 48.633 0 0 0 -61.026-47.039z" fill="#4d5e78"/><path d="m318.705 26.088q-.838-.228-1.679-.45a48.633 48.633 0 0 0 -61.026 47.039v183.323l91.667-158.772c15.868-27.483 1.659-62.805-28.962-71.14z" fill="#404f66"/><path d="m256 256h183.323a48.633 48.633 0 0 0 47.039-61.026q-.222-.84-.45-1.679c-8.335-30.621-43.657-44.83-71.14-28.962z" fill="#404f66"/><path d="m256 256-91.631-158.71c-15.908-27.553-53.657-32.772-76.234-10.354q-.6.6-1.2 1.2c-22.418 22.577-17.2 60.326 10.354 76.234z" fill="#404f66"/><path d="m26.088 193.3q-.228.839-.45 1.679a48.633 48.633 0 0 0 47.039 61.021h183.323l-158.772-91.667c-27.483-15.868-62.805-1.659-71.14 28.967z" fill="#4d5e78"/><path d="m256 112a143.336 143.336 0 0 1 72.01 19.275l16-27.716a175.175 175.175 0 0 0 -88.01-23.559z" fill="#4d5e78"/><path d="m380.725 183.99a143.336 143.336 0 0 1 19.275 72.01h32a175.175 175.175 0 0 0 -23.559-88.012z" fill="#4d5e78"/><path d="m183.99 131.275-16-27.716a176.849 176.849 0 0 0 -64.429 64.429l27.716 16a144.691 144.691 0 0 1 52.713-52.713z" fill="#4d5e78"/><path d="m380.725 183.99 27.716-16a176.849 176.849 0 0 0 -64.429-64.429l-16 27.716a144.691 144.691 0 0 1 52.713 52.713z" fill="#556a8a"/><path d="m256 112v-32a175.175 175.175 0 0 0 -88.012 23.559l16 27.716a143.336 143.336 0 0 1 72.012-19.275z" fill="#556a8a"/><path d="m131.275 183.99-27.716-16a175.175 175.175 0 0 0 -23.559 88.01h32a143.336 143.336 0 0 1 19.275-72.01z" fill="#556a8a"/><path d="m400 256v32a144 144 0 0 1 -288 0v-32z" fill="#b8b8b6"/><path d="m400 256v32a143.992 143.992 0 0 1 -236.61 110.26c84.61-14.72 166.05-55.69 214.06-142.26z" fill="#b0b0ae"/><path d="m200 309.15v6.85a44 44 0 0 1 -88 0v-60h48l23.49 18.79a44.018 44.018 0 0 1 16.51 34.36z" fill="#cfcfcd"/><path d="m174.16 298.89-12.32 10.22-44.04-53.11h20.79z" fill="#b0b0ae"/><path d="m150.23 314.98-12.46 10.04-25.77-31.97v-25.5z" fill="#b0b0ae"/><g fill="#a3a3a1"><path d="m184 360h-16a32.036 32.036 0 0 0 32 32v-16a16.019 16.019 0 0 1 -16-16z"/><path d="m232 376h-16a32.036 32.036 0 0 0 32 32v-16a16.019 16.019 0 0 1 -16-16z"/><path d="m280 360a16.019 16.019 0 0 1 -16 16v16a32.036 32.036 0 0 0 32-32z"/><path d="m320 368a16.019 16.019 0 0 1 -16 16v16a32.036 32.036 0 0 0 32-32z"/></g><path d="m312 286.15v9.85a56 56 0 1 1 -112 0v-9.85a56.392 56.392 0 0 1 1.33-12.15l14.67-66v-24a40 40 0 0 1 32.83-39.35 39.428 39.428 0 0 1 7.17-.65 40.015 40.015 0 0 1 40 40v24l14.67 66a56.392 56.392 0 0 1 1.33 12.15z" fill="#348fd9"/><path d="m225.942 157.623-43.659 17.464a35.448 35.448 0 0 0 -22.283 32.913h56v-24a39.839 39.839 0 0 1 9.942-26.377z" fill="#ffb531"/><path d="m312 286.15v9.85a56.01 56.01 0 0 1 -84.99 47.92c44.99.08 52.99-26 52.99-55.92v-9.85a56.392 56.392 0 0 0 -1.33-12.15l-14.67-66v-24a39.914 39.914 0 0 0 -15.17-31.35 39.428 39.428 0 0 1 7.17-.65 40.015 40.015 0 0 1 40 40v24l14.67 66a56.392 56.392 0 0 1 1.33 12.15z" fill="#3086cd"/><circle cx="256" cy="184" fill="#313b4c" r="16"/><path d="m176 264a16 16 0 0 1 -16-16v-40h32v40a16 16 0 0 1 -16 16z" fill="#f35244"/><path d="m216 208a54.626 54.626 0 0 0 38.627 16h1.373v52a28 28 0 0 1 -28 28 28 28 0 0 1 -28-28v-.553a28.014 28.014 0 0 1 .836-6.791z" fill="#f35244"/><path d="m312 309.15v6.85a44 44 0 0 0 88 0v-60h-48l-23.49 18.79a44.018 44.018 0 0 0 -16.51 34.36z" fill="#cfcfcd"/><path d="m337.84 298.89 12.32 10.22 44.04-53.11h-20.79z" fill="#b0b0ae"/><path d="m361.77 314.98 12.46 10.04 25.77-31.97v-25.5z" fill="#b0b0ae"/></g></svg>