<?xml version="1.0"?>
<svg xmlns="http://www.w3.org/2000/svg" id="Capa_1" enable-background="new 0 0 512 512" height="512px" viewBox="0 0 512 512" width="512px" class=""><g transform="matrix(0.989901 0 0 0.989901 2.58534 2.58534)"><path d="m465.825 68.265h-36.956c-4.143 0-7.5 3.358-7.5 7.5s3.357 7.5 7.5 7.5h36.956c17.19 0 31.175 13.985 31.175 31.175s-13.985 31.175-31.175 31.175h-25.206c4.991 4.636 9.628 9.649 13.855 15h11.351c25.461 0 46.175-20.714 46.175-46.175s-20.714-46.175-46.175-46.175z" fill="#fd8087" data-original="#FD8087" class="active-path" style="fill:#000000" data-old_color="#fd8087"/><path d="m164.797 437.426v-73.514c-17.047-7.185-32.385-17.891-45.026-31.298v104.812z" fill="#ffc4c8" data-original="#FFC4C8" class="" style="fill:#000000" data-old_color="#ffc4c8"/><path d="m140.073 437.426v-87.224c-7.333-5.158-14.138-11.051-20.302-17.588v104.812z" fill="#fdb4ba" data-original="#FDB4BA" class="" style="fill:#000000" data-old_color="#fdb4ba"/><path d="m388.251 437.426v-68.648c-12.065 3.595-24.567 5.412-37.343 5.412h-7.684v63.236z" fill="#ffc4c8" data-original="#FFC4C8" class="" style="fill:#000000" data-old_color="#ffc4c8"/><path d="m363.527 437.426v-63.844c-4.173.398-8.38.608-12.618.608h-7.683v63.236z" fill="#fdb4ba" data-original="#FDB4BA" class="" style="fill:#000000" data-old_color="#fdb4ba"/><path d="m187.37 372.134c4.677 1.025 8.031 5.132 8.031 9.92v55.372h45.026v-52.085c0-5.606 4.545-10.151 10.151-10.151h100.33c19.069 0 37.231-4.073 53.665-11.388 6.716-2.99 14.282 1.912 14.282 9.264v64.36h45.026v-117.143c0-5.104 1.288-10.124 3.739-14.602 10.333-18.878 16.222-40.495 16.222-63.424 0-73.113-59.82-132.933-132.933-132.933h-116.658v32.987l.081.189c4.437 10.317 7.277 21.225 8.444 32.419.365 3.503 1.755 6.691 4.018 9.221 10 11.175 15.286 23.808 15.286 36.532 0 42.916-58.56 77.831-130.54 77.831-13.116 0-25.782-1.164-37.734-3.32 16.884 38.58 51.598 67.756 93.564 76.951z" fill="#fe99a0" data-original="#FE99A0" class="" style="fill:#000000" data-old_color="#fe99a0"/><path d="m195.401 382.054v31.03h20.302v-51.332c0-4.788-3.354-8.895-8.031-9.92-32.899-7.208-61.337-26.699-80.226-53.37-11.66-.215-22.937-1.347-33.64-3.278 16.884 38.579 51.597 67.755 93.564 76.95 4.678 1.025 8.031 5.132 8.031 9.92z" fill="#fd8087" data-original="#FD8087" class="active-path" style="fill:#000000" data-old_color="#fd8087"/><path d="m206.639 103.763c12.63 11.452 22.35 25.47 28.612 40.953v-73.986c0-6.04-5.246-10.737-11.252-10.098-22.296 2.371-38.389 11.679-49.851 22.582 11.828 4.873 22.827 11.788 32.491 20.549z" fill="#fdb4ba" data-original="#FDB4BA" class="" style="fill:#000000" data-old_color="#fdb4ba"/><path d="m193.475 93.511c10.378-8.576 24.004-15.638 41.776-18.204v-4.577c0-6.04-5.246-10.737-11.252-10.098-22.296 2.371-38.389 11.679-49.851 22.582 6.744 2.779 13.215 6.227 19.327 10.297z" fill="#fe99a0" data-original="#FE99A0" class="" style="fill:#000000" data-old_color="#fe99a0"/><path d="m56.442 103.763c9.663-8.762 20.663-15.676 32.491-20.549-11.462-10.903-27.555-20.211-49.851-22.582-6.006-.639-11.252 4.058-11.252 10.098v73.986c6.262-15.483 15.982-29.501 28.612-40.953z" fill="#fe99a0" data-original="#FE99A0" class="" style="fill:#000000" data-old_color="#fe99a0"/><path d="m48.131 112.141v-41.411c0-3.188 1.47-5.991 3.733-7.844-4.018-1.004-8.269-1.775-12.782-2.255-6.006-.639-11.252 4.058-11.252 10.098v73.986c4.809-11.889 11.66-22.912 20.301-32.574z" fill="#fd8087" data-original="#FD8087" class="active-path" style="fill:#000000" data-old_color="#fd8087"/><path d="m247.539 183.474c-2.152-2.405-3.434-5.448-3.768-8.657-5.916-56.763-53.902-101.017-112.231-101.017s-106.314 44.254-112.231 101.017c-.335 3.209-1.617 6.252-3.768 8.657-9.915 11.081-15.541 23.746-15.541 37.199 0 43.537 58.893 78.831 131.54 78.831 72.648 0 131.54-35.294 131.54-78.831 0-13.453-5.625-26.118-15.541-37.199z" fill="#ffc4c8" data-original="#FFC4C8" class="" style="fill:#000000" data-old_color="#ffc4c8"/><path d="m30.453 220.673c0-13.453 5.626-26.118 15.541-37.199 2.152-2.405 3.434-5.448 3.768-8.657 5.392-51.737 45.737-93.075 97.004-99.991-4.981-.672-10.062-1.025-15.226-1.025-58.329 0-106.315 44.254-112.231 101.017-.335 3.209-1.617 6.252-3.768 8.657-9.915 11.08-15.541 23.745-15.541 37.198 0 43.537 58.893 78.831 131.54 78.831 5.151 0 10.23-.184 15.226-.529-65.473-4.524-116.313-37.852-116.313-78.302z" fill="#fdb4ba" data-original="#FDB4BA" class="" style="fill:#000000" data-old_color="#fdb4ba"/><path d="m154.363 257.613h-45.646c-15.4 0-28-12.6-28-28v-3.454c0-15.4 12.6-28 28-28h45.646c15.4 0 28 12.6 28 28v3.454c0 15.4-12.6 28-28 28z" fill="#fe99a0" data-original="#FE99A0" class="" style="fill:#000000" data-old_color="#fe99a0"/><path d="m101.019 229.191v-2.608c0-15.632 12.79-28.423 28.423-28.423h-20.302c-15.632 0-28.423 12.79-28.423 28.423v2.608c0 15.632 12.79 28.423 28.423 28.423h20.302c-15.633-.001-28.423-12.791-28.423-28.423z" fill="#fd8087" data-original="#FD8087" class="active-path" style="fill:#000000" data-old_color="#fd8087"/><path d="m114.351 239.445c-4.143 0-7.5-3.358-7.5-7.5v-9.168c0-4.142 3.357-7.5 7.5-7.5s7.5 3.358 7.5 7.5v9.168c0 4.142-3.358 7.5-7.5 7.5z" fill="#ffc4c8" data-original="#FFC4C8" class="" style="fill:#000000" data-old_color="#ffc4c8"/><path d="m148.729 239.445c-4.143 0-7.5-3.358-7.5-7.5v-9.168c0-4.142 3.357-7.5 7.5-7.5s7.5 3.358 7.5 7.5v9.168c0 4.142-3.357 7.5-7.5 7.5z" fill="#ffc4c8" data-original="#FFC4C8" class="" style="fill:#000000" data-old_color="#ffc4c8"/><path d="m93.663 176.049c-4.143 0-7.5-3.358-7.5-7.5v-17.219c0-4.142 3.357-7.5 7.5-7.5s7.5 3.358 7.5 7.5v17.219c0 4.142-3.357 7.5-7.5 7.5z" fill="#32569d" data-original="#32569D" class="" style="fill:#000000" data-old_color="#32569d"/><path d="m169.417 176.049c-4.143 0-7.5-3.358-7.5-7.5v-17.219c0-4.142 3.357-7.5 7.5-7.5s7.5 3.358 7.5 7.5v17.219c0 4.142-3.357 7.5-7.5 7.5z" fill="#32569d" data-original="#32569D" class="" style="fill:#000000" data-old_color="#32569d"/><path d="m119.771 413.084h45.026v24.342h-45.026z" fill="#fe99a0" data-original="#FE99A0" class="" style="fill:#000000" data-old_color="#fe99a0"/><path d="m119.771 413.084h20.302v24.342h-20.302z" fill="#fd8087" data-original="#FD8087" class="active-path" style="fill:#000000" data-old_color="#fd8087"/><path d="m343.225 413.084h45.026v24.342h-45.026z" fill="#fe99a0" data-original="#FE99A0" class="" style="fill:#000000" data-old_color="#fe99a0"/><path d="m343.225 413.084h20.302v24.342h-20.302z" fill="#fd8087" data-original="#FD8087" class="active-path" style="fill:#000000" data-old_color="#fd8087"/><path d="m195.401 413.084h45.026v24.342h-45.026z" fill="#ffc4c8" data-original="#FFC4C8" class="" style="fill:#000000" data-old_color="#ffc4c8"/><path d="m195.401 413.084h20.302v24.342h-20.302z" fill="#fdb4ba" data-original="#FDB4BA" class="" style="fill:#000000" data-old_color="#fdb4ba"/><path d="m418.855 413.084h45.026v24.342h-45.026z" fill="#ffc4c8" data-original="#FFC4C8" class="" style="fill:#000000" data-old_color="#ffc4c8"/><path d="m418.855 413.084h20.302v24.342h-20.302z" fill="#fdb4ba" data-original="#FDB4BA" class="" style="fill:#000000" data-old_color="#fdb4ba"/><path d="m504.5 451.426h-429.72c-4.143 0-7.5-3.358-7.5-7.5s3.357-7.5 7.5-7.5h429.72c4.143 0 7.5 3.358 7.5 7.5s-3.357 7.5-7.5 7.5z" fill="#c57a44" data-original="#C57A44" class="" style="fill:#000000" data-old_color="#c57a44"/></g> </svg>
