<?xml version="1.0" standalone="no"?>
<!DOCTYPE svg PUBLIC "-//W3C//DTD SVG 20010904//EN"
 "http://www.w3.org/TR/2001/REC-SVG-20010904/DTD/svg10.dtd">
<svg version="1.0" xmlns="http://www.w3.org/2000/svg"
 width="512.000000pt" height="512.000000pt" viewBox="0 0 512.000000 512.000000"
 preserveAspectRatio="xMidYMid meet">
<metadata>
Created by potrace 1.11, written by Peter Selinger 2001-2013
</metadata>
<g transform="translate(0.000000,512.000000) scale(0.100000,-0.100000)"
fill="#000000" stroke="none">
<path d="M1325 5105 c-74 -14 -168 -40 -197 -56 -10 -5 -23 -9 -29 -9 -15 0
-182 -84 -222 -111 -18 -12 -62 -45 -99 -72 l-66 -50 -114 -1 c-94 -2 -126 -7
-188 -29 -179 -64 -322 -210 -381 -389 -33 -102 -33 -263 0 -358 56 -158 147
-267 298 -354 1 -1 4 -13 7 -26 23 -118 95 -285 171 -400 145 -218 397 -408
637 -481 l70 -22 -4 -121 c-3 -109 -5 -125 -26 -151 -52 -66 -39 -64 -494 -65
-227 0 -426 -3 -443 -6 -85 -15 -173 -83 -217 -166 -31 -60 -32 -183 -1 -250
30 -65 77 -114 142 -146 l56 -27 497 -3 498 -3 -56 -65 c-109 -129 -178 -261
-222 -424 -22 -83 -25 -117 -26 -264 l-2 -169 -60 -17 c-300 -85 -515 -351
-541 -668 -7 -86 11 -136 61 -173 l31 -24 1800 -2 c1721 -3 1804 -2 1890 16
94 19 218 64 246 87 8 8 19 14 23 14 18 0 134 88 192 146 122 123 202 269 251
461 3 15 8 341 10 723 4 758 4 757 62 836 15 22 53 56 82 76 117 78 153 140
154 264 0 71 -4 88 -30 139 -67 128 -211 193 -347 155 -55 -16 -175 -98 -250
-173 -129 -128 -205 -269 -255 -472 -4 -16 -8 -340 -10 -720 -3 -572 -6 -699
-18 -742 -22 -74 -81 -145 -152 -179 l-58 -29 -423 -3 -424 -3 54 68 c215 270
356 596 395 913 10 84 10 376 0 459 -58 466 -321 917 -707 1211 -67 51 -243
163 -271 172 -7 2 0 36 19 93 17 50 34 106 37 125 5 29 16 41 57 65 78 47 172
148 211 229 48 99 60 148 63 256 5 143 -19 228 -93 347 -67 107 -185 200 -306
244 -47 17 -90 23 -181 25 l-119 4 -71 55 c-141 107 -297 183 -469 226 -101
26 -336 33 -442 14z"/>
</g>
</svg>
